<?xml version="1.0" standalone="no"?>
<!DOCTYPE svg PUBLIC "-//W3C//DTD SVG 20010904//EN"
 "http://www.w3.org/TR/2001/REC-SVG-20010904/DTD/svg10.dtd">
<svg version="1.0" xmlns="http://www.w3.org/2000/svg"
 width="98.000000pt" height="98.000000pt" viewBox="0 0 98.000000 98.000000"
 preserveAspectRatio="xMidYMid meet">
<metadata>
Created by potrace 1.14, written by Peter Selinger 2001-2017
</metadata>
<g transform="translate(0.000000,98.000000) scale(0.100000,-0.100000)"
fill="#000000" stroke="none">
<path d="M170 790 l0 -50 35 0 c33 0 35 -2 35 -35 0 -33 -2 -35 -35 -35 l-35
0 0 -55 0 -55 -50 0 -50 0 0 90 0 90 -35 0 -35 0 0 -175 0 -175 35 0 c33 0 35
-2 35 -35 l0 -35 50 0 50 0 0 -55 0 -55 -50 0 -50 0 0 -35 0 -35 50 0 50 0 0
35 c0 33 2 35 35 35 l35 0 0 55 0 55 245 0 245 0 0 -55 0 -55 35 0 c33 0 35
-2 35 -35 l0 -35 55 0 55 0 0 35 0 35 -55 0 -55 0 0 55 0 55 55 0 55 0 0 35
c0 33 2 35 35 35 l35 0 0 175 0 175 -35 0 -35 0 0 -90 0 -90 -55 0 -55 0 0 55
0 55 -35 0 c-33 0 -35 2 -35 35 0 33 2 35 35 35 l35 0 0 50 0 50 -35 0 -35 0
0 -50 0 -50 -50 0 -50 0 0 -35 0 -35 -140 0 -140 0 0 35 0 35 -55 0 -55 0 0
50 0 50 -35 0 -35 0 0 -50z m180 -280 l0 -50 -55 0 -55 0 0 50 0 50 55 0 55 0
0 -50z m380 0 l0 -50 -50 0 -50 0 0 50 0 50 50 0 50 0 0 -50z"/>
</g>
</svg>
